<svg width="100" height="100" viewBox="0 0 100 100" fill="none" xmlns="http://www.w3.org/2000/svg">
<path d="M7.01412 93.1735C7.01412 93.8227 6.78365 94.3828 6.3149 94.8571C6.09644 95.0858 5.8331 95.2669 5.54138 95.3891C5.24966 95.5113 4.93584 95.5719 4.61959 95.5672C4.30958 95.5718 4.0021 95.511 3.71723 95.3886C3.43236 95.2662 3.17653 95.0851 2.96646 94.8571C2.74717 94.6356 2.57425 94.3727 2.45781 94.0836C2.34137 93.7945 2.28376 93.4851 2.28834 93.1735C2.28834 92.5073 2.51438 91.942 2.96646 91.4774C3.17774 91.2516 3.43403 91.0726 3.71878 90.952C4.00353 90.8315 4.31041 90.772 4.61959 90.7774C5.28365 90.7769 5.84876 91.013 6.3149 91.486C6.78365 91.9602 7.01412 92.5227 7.01412 93.1735ZM36.6821 95.0797H32.3602L16.6735 70.8547C16.2952 70.2513 15.9768 69.6123 15.7227 68.9469H15.5938C15.7063 69.5964 15.7626 70.9878 15.7626 73.1211V95.0797H12.2008V64.6867H16.8243L32.0415 88.5305C32.6469 89.4766 33.0618 90.1547 33.2719 90.5625H33.3563C33.2146 89.6875 33.1433 88.1979 33.1422 86.0938V64.6875H36.6829L36.6821 95.0797ZM59.5204 95.0797H43.4118V64.6867H58.8212V67.9078H46.9712V78.018H57.9508V81.2399H46.9712V91.8578H59.5204V95.0797ZM83.9532 67.9078H75.1985V95.0805H71.6376V67.9078H62.8657V64.6852H83.9532V67.9078Z" fill="black"/>
<path d="M35.4742 12.1907C38.911 22.7 40.2117 41.4477 50.2617 41.4477C51.0266 41.4477 51.8 41.3735 52.5758 41.225C43.4406 39.0946 42.3578 20.5516 36.7836 10.9485C36.3392 11.3541 35.9027 11.7682 35.4742 12.1907Z" fill="url(#paint0_linear_23_97)"/>
<path d="M36.7836 10.9484C42.3578 20.5515 43.4406 39.0945 52.5758 41.225C53.309 41.0867 54.0304 40.8918 54.7336 40.6422C46.5336 36.6242 44.2672 18.6172 37.9367 9.94763C37.5528 10.2679 37.1685 10.6015 36.7836 10.9484Z" fill="url(#paint1_linear_23_97)"/>
<path d="M44.8156 5.23749C44.0524 5.23749 43.2774 5.31249 42.5 5.46015C40.4664 5.84374 38.4008 6.71874 36.318 8.04452C36.9078 8.63514 37.4494 9.27207 37.9375 9.94921C40.0555 8.19218 42.1594 6.89374 44.2555 6.11249C45.0207 5.82621 45.8093 5.60715 46.6125 5.4578C46.0252 5.30893 45.4215 5.2349 44.8156 5.23749Z" fill="#14559A"/>
<path d="M61.1336 36.9391C62.0075 36.2412 62.849 35.5037 63.6555 34.729C60.1633 24.2688 58.9133 5.25317 48.7938 5.25317C48.0704 5.25317 47.3399 5.32036 46.6125 5.45552C55.8297 7.7477 57.0102 27.8032 61.1336 36.9391Z" fill="url(#paint2_linear_23_97)"/>
<path d="M46.6125 5.45627C46.0248 5.30841 45.4208 5.23466 44.8148 5.23674L48.7945 5.25158C48.0703 5.25158 47.3406 5.31877 46.6125 5.45627Z" fill="#3092C4"/>
<path d="M60.9579 39.161C60.5547 38.7716 60.1739 38.3598 59.8172 37.9274C58.1149 39.1328 56.418 40.0469 54.7336 40.6422C55.3329 40.9352 55.9618 41.1524 56.629 41.2875C57.1604 41.3957 57.7015 41.4494 58.2438 41.4477C60.1352 41.4477 61.6297 41.2242 62.9024 40.6133C62.2016 40.2344 61.5586 39.7446 60.9579 39.161Z" fill="#1969BC"/>
<path d="M44.2546 6.11326C52.5117 10.432 53.2289 29.9883 59.8171 37.9281C60.2578 37.6172 60.6963 37.2877 61.1328 36.9398C57.0085 27.8031 55.8296 7.74607 46.6132 5.45544C45.8094 5.60572 45.0202 5.82583 44.2546 6.11326Z" fill="url(#paint3_linear_23_97)"/>
<path d="M37.9368 9.94844C44.2672 18.618 46.5336 36.625 54.7336 40.643C56.4196 40.0477 58.1149 39.1336 59.8172 37.9281C53.229 29.9883 52.511 10.432 44.2547 6.11328C42.1586 6.89297 40.0547 8.19141 37.9368 9.94844Z" fill="url(#paint4_linear_23_97)"/>
<path d="M31.4234 11.9375C30.4304 14.1813 29.4171 17.1297 28.1921 20.9797C30.6281 17.5461 33.0578 14.5883 35.4734 12.1906C35.1683 11.2357 34.8094 10.2988 34.3984 9.3844C33.362 10.1819 32.3689 11.0341 31.4234 11.9375Z" fill="url(#paint5_linear_23_97)"/>
<path d="M35.2789 8.73755C34.9875 8.94614 34.6938 9.15942 34.4 9.38442C34.8108 10.2988 35.1694 11.2357 35.4742 12.1907C35.9037 11.769 36.3405 11.3549 36.7844 10.9485C36.3382 10.1751 35.835 9.4361 35.2789 8.73755Z" fill="#2B74B1"/>
<path d="M36.3172 8.0437C35.9719 8.26349 35.6253 8.49448 35.2773 8.73667C35.8352 9.43489 36.3388 10.1748 36.7836 10.95C37.169 10.601 37.5534 10.2671 37.9367 9.94839C37.4497 9.27041 36.908 8.63339 36.3172 8.0437Z" fill="#125A9E"/>
<path d="M92.6344 4.43755C87.9648 22.4454 78.2117 36.9102 70.0352 40.5563H70.0188L69.5773 40.7446L69.5242 40.7657L69.3984 40.8141L69.3422 40.8375L69.1383 40.9094L69.0539 40.9391L68.9523 40.9727L68.8539 41.0071L68.7664 41.036L68.5922 41.0891L68.518 41.1086L68.4 41.1407L68.3203 41.1625L68.1922 41.1954L68.0352 41.2297C68.4047 41.3665 68.7898 41.4352 69.2047 41.4352C76.9578 41.4352 84.7766 27.5399 97.7117 4.43286H92.6328L92.6344 4.43755Z" fill="url(#paint6_linear_23_97)"/>
<path d="M26.5085 5.96873L26.5226 5.95544L26.5406 5.94373H26.5507L26.6765 5.89529L26.7015 5.88279L26.7335 5.86873L26.8687 5.82029H26.8757L27.1734 5.71638L27.2171 5.70466L27.3453 5.66638L27.4039 5.64763L27.532 5.60935L27.5812 5.59685L28.007 5.48591L28.0656 5.47263L28.1898 5.44841L28.2515 5.42966L28.3765 5.40623H28.4054L28.6648 5.35779H28.7164L28.8359 5.33748L28.9031 5.32498L29.0171 5.30779L29.0812 5.29607L29.3601 5.27107C29.0857 5.24377 28.8101 5.22969 28.5343 5.22888C19.8023 5.22888 7.77183 21.4304 2.35229 42.4117H3.39683C5.01683 39.5158 6.58918 36.5936 8.11323 33.6461C11.9093 18.7851 19.6398 8.64919 26.507 5.96404" fill="url(#paint7_linear_23_97)"/>
<path d="M31.4235 11.9375C32.369 11.0341 33.362 10.1819 34.3985 9.38442C34.1875 8.9153 33.9509 8.4581 33.6899 8.01489C32.8914 8.98442 32.1617 10.2625 31.4235 11.9375ZM32.1414 6.09146C32.7117 6.5688 33.2219 7.22739 33.6899 8.01489C33.8322 7.83951 33.9829 7.67108 34.1414 7.51021C33.514 6.91779 32.803 6.42057 32.0313 6.03442L32.1242 6.07896L32.1414 6.09146Z" fill="#0D82CA"/>
<path d="M8.1156 33.65C16.0773 18.3063 19.85 8.59614 26.5093 5.96802C19.6429 8.65474 11.9109 18.7899 8.1156 33.65Z" fill="url(#paint8_linear_23_97)"/>
<path d="M34.1406 7.51099C33.9852 7.66958 33.8383 7.8352 33.6891 8.01567C33.9391 8.43442 34.1719 8.88989 34.3992 9.3852C34.693 9.15942 34.9867 8.94692 35.2781 8.73755C34.9287 8.30212 34.5486 7.89222 34.1406 7.51099Z" fill="#127BCA"/>
<path d="M11.7305 42.346L11.586 42.3632H11.5586L11.436 42.3757H11.4157L11.1235 42.3953H11.093C19.1508 42.1695 22.8352 38.1351 24.6633 32.2828C26.0516 27.8468 27.193 24.1093 28.193 20.9734C24.818 25.7242 21.4266 31.3875 18.018 37.732C16.3743 40.7898 13.8743 42.0671 11.7305 42.3398" fill="url(#paint9_linear_23_97)"/>
<path d="M11.7305 42.3429C13.8742 42.0695 16.3742 40.7937 18.018 37.7343C21.4266 31.3921 24.8195 25.7273 28.1914 20.9757C29.4187 17.125 30.4305 14.1781 31.4242 11.9343C24.7023 18.332 17.9555 28.9703 11.7305 42.3398" fill="url(#paint10_linear_23_97)"/>
<path d="M8.11567 33.65C6.59086 36.5974 5.01799 39.5197 3.39771 42.4157H6.43599C6.81934 39.4633 7.37999 36.5366 8.11489 33.6516" fill="#05A1E6"/>
<path d="M29.082 5.30549L29.0172 5.31799L28.9031 5.3344L28.8367 5.34612L28.7172 5.36721L28.6656 5.37971L28.4062 5.42502H28.3773L28.2508 5.45002L28.1875 5.46643L28.0648 5.49065L28.007 5.50471L27.5804 5.61565L27.5312 5.63049L27.4023 5.66877L27.3437 5.68362L27.2164 5.72112L27.1695 5.73362L26.8734 5.83752L26.739 5.8844L26.6828 5.90784L26.5578 5.95471L26.5164 5.97502C19.8578 8.60315 16.0851 18.3133 8.12341 33.6563C7.38824 36.5413 6.82733 39.4679 6.44373 42.4203H6.87029L9.79138 42.4078H11.1304L11.4226 42.3883H11.4414L11.564 42.3758H11.5937L11.7383 42.3586C17.9625 28.9899 24.7101 18.3516 31.432 11.9539C32.1703 10.2789 32.8992 9.00002 33.6961 8.03206C33.2297 7.24456 32.7195 6.5844 32.1492 6.10627L32.1328 6.09377L32.0375 6.04768L31.9437 6.00002L31.8523 5.95549L31.7445 5.91018L31.6601 5.87346L31.4836 5.80002L31.4086 5.77112L31.2773 5.71877L31.2062 5.69534L31.0234 5.63284H31.0086L30.7968 5.57268L30.7492 5.55784L30.5711 5.50784L30.5297 5.49612C30.3834 5.45772 30.2356 5.4254 30.0867 5.39924L30.0406 5.38674L29.8484 5.35549L29.8109 5.34377L29.5836 5.31409H29.5437L29.3687 5.29456L29.0898 5.32034" fill="url(#paint11_linear_23_97)"/>
<path d="M74.3953 14.407C72.8633 19.314 71.6227 23.3624 70.543 26.6937C74.7469 20.9093 78.8867 13.6328 82.8305 5.23511C78.2297 6.67964 75.7766 9.98589 74.3953 14.407Z" fill="url(#paint12_linear_23_97)"/>
<path d="M70.6758 40.25C70.4607 40.3594 70.2471 40.4617 70.0352 40.557C78.2117 36.9102 87.9656 22.4453 92.6344 4.4375H91.6883C80.9594 23.6016 77.5094 36.4312 70.6758 40.25Z" fill="url(#paint13_linear_23_97)"/>
<path d="M65.3367 38.6399C67.1156 36.4688 68.5649 32.7774 70.5438 26.693C68.2617 29.8274 65.9649 32.5227 63.6656 34.7196L63.6539 34.7391C64.1555 36.2414 64.7055 37.5688 65.3328 38.6391" fill="#079AE1"/>
<path d="M65.3368 38.6399C64.7313 39.379 64.0899 39.9415 63.3766 40.3586C63.2204 40.4503 63.062 40.5352 62.9016 40.6133C63.6547 41.0196 64.4766 41.2915 65.3961 41.4L65.804 41.436H65.8282L66.0243 41.4485H66.6899L66.7649 41.436L66.9118 41.4235H66.9829L67.143 41.4063H67.1547L67.204 41.3946L67.3743 41.368H67.4243L67.6157 41.336H67.6461L68.0282 41.2547C66.9727 40.8696 66.0899 39.9579 65.329 38.661" fill="#1969BC"/>
<path d="M50.2617 41.4477C51.0273 41.4477 51.7984 41.3729 52.575 41.2234C53.293 41.093 54.0125 40.8937 54.7328 40.6422C55.8254 41.1778 57.027 41.4535 58.2438 41.4477H50.2617ZM58.2438 41.4477C60.1336 41.4477 61.6297 41.2234 62.9016 40.6133C63.6751 41.0327 64.5219 41.2998 65.3961 41.4L65.8039 41.4352H65.8281L66.0242 41.4477H66.2594H58.2438Z" fill="#1E5CB3"/>
<path d="M66.2594 41.4477H66.6961L66.7711 41.4352L66.9196 41.4227H66.9922L67.1508 41.4055H67.1641L67.2125 41.3938L67.3828 41.368L67.4344 41.3563L67.6266 41.325H67.6571L68.0391 41.2438C68.4139 41.3813 68.8102 41.4508 69.2094 41.4492L66.2617 41.4617L66.2594 41.4477Z" fill="#1D60B5"/>
<path d="M63.6578 34.7398V34.7273C62.8513 35.5023 62.0098 36.24 61.1359 36.9382C60.6976 37.2859 60.2609 37.6156 59.8187 37.9265C60.1756 38.3589 60.5567 38.7708 60.9601 39.1601C61.5617 39.7429 62.2031 40.2335 62.9039 40.6125C63.0643 40.5338 63.2224 40.4489 63.3781 40.3578C64.0929 39.9406 64.7328 39.3781 65.339 38.639C64.7117 37.5687 64.1617 36.2414 63.6609 34.739" fill="#175FAB"/>
<path d="M88.6914 4.4375H83.9289L83.1742 4.47422L82.8227 5.22578C78.8805 13.6234 74.7399 20.9 70.536 26.6852C68.5594 32.768 67.1086 36.4594 65.3297 38.6312C66.0899 39.9289 66.975 40.8414 68.0266 41.2281L68.1094 41.2102H68.1266L68.1844 41.1969L68.3164 41.1641L68.3946 41.1414L68.5125 41.1102L68.586 41.0898L68.761 41.0367L68.8485 41.0078L68.9469 40.9719L69.0477 40.9398L69.1297 40.9086L69.3352 40.8367L69.3922 40.8156L69.518 40.7664L69.5719 40.7469L70.0133 40.5586H70.0281C70.2406 40.4643 70.4539 40.362 70.668 40.2516C77.5039 36.4328 80.9539 23.6031 91.6821 4.43906H88.686L88.6914 4.4375Z" fill="url(#paint14_linear_23_97)"/>
<path d="M29.3617 5.27964L29.4109 5.29214L29.5351 5.30542H29.5773L29.8039 5.33433L29.8429 5.34683L30.0344 5.37886L30.082 5.39058L30.5242 5.48823L30.564 5.50073L30.7414 5.55073L30.7906 5.56558L31.0008 5.62573L31.0164 5.63823L31.2008 5.70151L31.2711 5.72417L31.4031 5.77808L31.4781 5.80464L31.6531 5.87808L31.739 5.9148L31.8445 5.96089L31.9383 6.00464L32.0312 6.05308C32.8033 6.4394 33.5145 6.93688 34.1422 7.52964C34.3807 7.2786 34.6302 7.05203 34.8906 6.84995C33.4726 5.8437 31.864 5.27026 30.0109 5.27026C29.7961 5.27026 29.582 5.28276 29.3633 5.29917" fill="#7DCBEC"/>
<path d="M34.1406 7.51099C34.5375 7.88052 34.918 8.29302 35.2781 8.73755C35.625 8.49432 35.9716 8.26333 36.318 8.04458C35.8768 7.59994 35.3982 7.19402 34.8875 6.8313C34.6215 7.03834 34.3718 7.26558 34.1406 7.51099Z" fill="#5EC5ED"/>
<path d="M29.156 5.33143L29.803 5.30375C31.6566 5.30375 33.2654 5.87569 34.6812 6.88135C36.1798 5.70217 37.9863 5.28799 40.5024 5.28799H28.3318L29.156 5.33143Z" fill="url(#paint15_linear_23_97)"/>
<path d="M40.5022 5.28816C37.99 5.28816 36.1795 5.70234 34.6809 6.88153C35.1804 7.23383 35.6566 7.63732 36.1088 8.09216C38.1911 6.76706 40.2576 5.89165 42.2926 5.50516C43.0708 5.35793 43.8426 5.28431 44.6077 5.28431L40.5022 5.28816Z" fill="url(#paint16_linear_23_97)"/>
<path d="M70.543 26.6969C71.6243 23.3633 72.8618 19.3165 74.3969 14.4079C75.7805 9.9852 78.2289 6.67817 82.8282 5.23521L83.1829 4.48364C75.6852 4.93286 72.1813 8.74692 70.418 14.3954C67.3344 24.2563 65.4657 30.6477 63.6672 34.7211C65.9641 32.5243 68.261 29.8282 70.543 26.6969Z" fill="url(#paint17_linear_23_97)"/>
<defs>
<linearGradient id="paint0_linear_23_97" x1="44.2108" y1="5.11848" x2="44.2108" y2="50.5069" gradientUnits="userSpaceOnUse">
<stop stop-color="#0994DC"/>
<stop offset="0.35" stop-color="#66CEF5"/>
<stop offset="0.846" stop-color="#127BCA"/>
<stop offset="1" stop-color="#127BCA"/>
</linearGradient>
<linearGradient id="paint1_linear_23_97" x1="45.8112" y1="3.77364" x2="45.8112" y2="50.4388" gradientUnits="userSpaceOnUse">
<stop stop-color="#0E76BC"/>
<stop offset="0.36" stop-color="#36AEE8"/>
<stop offset="0.846" stop-color="#00ADEF"/>
<stop offset="1" stop-color="#00ADEF"/>
</linearGradient>
<linearGradient id="paint2_linear_23_97" x1="55.1711" y1="40.3761" x2="55.1711" y2="3.34085" gradientUnits="userSpaceOnUse">
<stop stop-color="#1C63B7"/>
<stop offset="0.5" stop-color="#33BDF2"/>
<stop offset="1" stop-color="#33BDF2" stop-opacity="0.42"/>
</linearGradient>
<linearGradient id="paint3_linear_23_97" x1="52.6253" y1="-0.947368" x2="52.6253" y2="47.5029" gradientUnits="userSpaceOnUse">
<stop stop-color="#166AB8"/>
<stop offset="0.4" stop-color="#36AEE8"/>
<stop offset="0.846" stop-color="#0798DD"/>
<stop offset="1" stop-color="#0798DD"/>
</linearGradient>
<linearGradient id="paint4_linear_23_97" x1="49.1019" y1="-0.610825" x2="49.1019" y2="50.9098" gradientUnits="userSpaceOnUse">
<stop stop-color="#124379"/>
<stop offset="0.39" stop-color="#1487CB"/>
<stop offset="0.78" stop-color="#165197"/>
<stop offset="1" stop-color="#165197"/>
</linearGradient>
<linearGradient id="paint5_linear_23_97" x1="27.8013" y1="14.5594" x2="35.0823" y2="14.5594" gradientUnits="userSpaceOnUse">
<stop stop-color="#33BDF2" stop-opacity="0.698"/>
<stop offset="1" stop-color="#1DACD8"/>
</linearGradient>
<linearGradient id="paint6_linear_23_97" x1="82.9073" y1="39.3751" x2="82.9073" y2="3.20479" gradientUnits="userSpaceOnUse">
<stop stop-color="#136AB4"/>
<stop offset="0.6" stop-color="#59CAF5" stop-opacity="0.549"/>
<stop offset="1" stop-color="#59CAF5" stop-opacity="0.235"/>
</linearGradient>
<linearGradient id="paint7_linear_23_97" x1="1.96757" y1="23.2" x2="28.9685" y2="23.2" gradientUnits="userSpaceOnUse">
<stop stop-color="#05A1E6" stop-opacity="0.247"/>
<stop offset="1" stop-color="#05A1E6"/>
</linearGradient>
<linearGradient id="paint8_linear_23_97" x1="17.4229" y1="40.3678" x2="17.4229" y2="3.4275" gradientUnits="userSpaceOnUse">
<stop stop-color="#318ED5"/>
<stop offset="1" stop-color="#38A7E4"/>
</linearGradient>
<linearGradient id="paint9_linear_23_97" x1="19.5253" y1="40.4611" x2="19.5253" y2="4.46038" gradientUnits="userSpaceOnUse">
<stop stop-color="#05A1E6"/>
<stop offset="1" stop-color="#05A1E6" stop-opacity="0.549"/>
</linearGradient>
<linearGradient id="paint10_linear_23_97" x1="21.6927" y1="42.4107" x2="21.6927" y2="11.9896" gradientUnits="userSpaceOnUse">
<stop stop-color="#1959A6"/>
<stop offset="0.5" stop-color="#05A1E6"/>
<stop offset="0.918" stop-color="#7EC5EA"/>
<stop offset="1" stop-color="#7EC5EA"/>
</linearGradient>
<linearGradient id="paint11_linear_23_97" x1="22.6843" y1="40.3557" x2="16.8831" y2="7.45553" gradientUnits="userSpaceOnUse">
<stop stop-color="#165096"/>
<stop offset="1" stop-color="#0D82CA"/>
</linearGradient>
<linearGradient id="paint12_linear_23_97" x1="76.5294" y1="21.7019" x2="76.5294" y2="4.46406" gradientUnits="userSpaceOnUse">
<stop stop-color="#05A1E6"/>
<stop offset="0.874" stop-color="#0495D6"/>
<stop offset="1" stop-color="#0495D6"/>
</linearGradient>
<linearGradient id="paint13_linear_23_97" x1="84.8803" y1="2.9748" x2="77.8894" y2="42.6221" gradientUnits="userSpaceOnUse">
<stop stop-color="#38A7E4" stop-opacity="0.329"/>
<stop offset="0.962" stop-color="#0E88D3"/>
<stop offset="1" stop-color="#0E88D3"/>
</linearGradient>
<linearGradient id="paint14_linear_23_97" x1="78.3106" y1="4.37553" x2="78.3106" y2="41.8848" gradientUnits="userSpaceOnUse">
<stop stop-color="#168CD4"/>
<stop offset="0.5" stop-color="#1C87CC"/>
<stop offset="1" stop-color="#154B8D"/>
</linearGradient>
<linearGradient id="paint15_linear_23_97" x1="27.4505" y1="0.630052" x2="71.1782" y2="18.7661" gradientUnits="userSpaceOnUse">
<stop stop-color="#97D6EE"/>
<stop offset="0.703" stop-color="#55C1EA"/>
<stop offset="1" stop-color="#55C1EA"/>
</linearGradient>
<linearGradient id="paint16_linear_23_97" x1="39.4107" y1="11.0489" x2="73.9473" y2="-4.60776" gradientUnits="userSpaceOnUse">
<stop stop-color="#7ACCEC"/>
<stop offset="1" stop-color="#3FB7ED"/>
</linearGradient>
<linearGradient id="paint17_linear_23_97" x1="73.2739" y1="6.36545" x2="73.2739" y2="43.1478" gradientUnits="userSpaceOnUse">
<stop stop-color="#1DA7E7"/>
<stop offset="1" stop-color="#37ABE7" stop-opacity="0"/>
</linearGradient>
</defs>
</svg>
