<svg width="100" height="100" viewBox="0 0 100 100" fill="none" xmlns="http://www.w3.org/2000/svg">
<path d="M92.8416 40.9208C93.9549 37.5534 94.339 33.9876 93.9683 30.4603C93.5976 26.933 92.4807 23.5249 90.6916 20.4625C88.0313 15.8367 83.9716 12.1744 79.0971 10.003C74.2226 7.83153 68.7848 7.26297 63.5666 8.37914C60.6027 5.08193 56.8236 2.62249 52.6086 1.24776C48.3936 -0.126971 43.8911 -0.368611 39.5532 0.547102C35.2153 1.46282 31.1946 3.50365 27.8948 6.46471C24.5951 9.42576 22.1324 13.2028 20.7541 17.4166C17.279 18.1332 13.9962 19.5814 11.124 21.6647C8.25176 23.7481 5.85594 26.4191 4.09578 29.5C1.41062 34.1207 0.26345 39.4752 0.81991 44.7904C1.37637 50.1056 3.60766 55.1064 7.19162 59.0708C6.06858 62.4363 5.6772 66.0027 6.04367 69.5316C6.41014 73.0605 7.52601 76.4704 9.31662 79.5333C11.9781 84.1631 16.0412 87.8281 20.92 89.9997C25.7987 92.1714 31.2411 92.7376 36.4625 91.6166C38.8201 94.2669 41.7146 96.385 44.9539 97.8304C48.1931 99.2759 51.7029 100.015 55.2499 100C60.598 100.002 65.8087 98.3064 70.1309 95.1568C74.4532 92.0072 77.6638 87.5666 79.2999 82.475C82.7743 81.7579 86.0563 80.3095 88.9278 78.2261C91.7992 76.1427 94.1944 73.4721 95.9541 70.3916C98.6074 65.7781 99.735 60.4442 99.176 55.1516C98.6171 49.859 96.4001 44.8783 92.8416 40.9208ZM55.2499 93.4583C50.8709 93.4642 46.6291 91.9303 43.2666 89.125L43.8541 88.7875L63.7666 77.2958C64.26 77.0033 64.6695 76.5885 64.9557 76.0914C65.2418 75.5943 65.3948 75.0318 65.3999 74.4583V46.3875L73.8166 51.2541C73.8584 51.2749 73.8946 51.3055 73.9222 51.3432C73.9497 51.3809 73.9678 51.4247 73.9749 51.4708V74.7333C73.9639 79.6961 71.9876 84.4525 68.4784 87.9617C64.9691 91.471 60.2127 93.4473 55.2499 93.4583ZM14.9999 76.2666C12.802 72.4734 12.0127 68.0263 12.7708 63.7083L13.3624 64.0625L33.2916 75.5583C33.7843 75.8477 34.3453 76.0003 34.9166 76.0003C35.488 76.0003 36.049 75.8477 36.5416 75.5583L60.8874 61.5208V71.2375C60.8857 71.2882 60.8724 71.3378 60.8486 71.3825C60.8247 71.4273 60.791 71.466 60.7499 71.4958L40.5833 83.125C36.2799 85.6024 31.1696 86.2716 26.3735 84.9859C21.5773 83.7001 17.487 80.5644 14.9999 76.2666ZM9.74995 32.9C11.9665 29.0852 15.4573 26.1742 19.6083 24.6791V48.3333C19.602 48.9049 19.7486 49.4677 20.0328 49.9637C20.3171 50.4596 20.7286 50.8706 21.2249 51.1541L45.4541 65.1291L37.0374 69.9958C36.9915 70.0186 36.9408 70.0304 36.8895 70.0304C36.8382 70.0304 36.7876 70.0186 36.7416 69.9958L16.6166 58.3875C12.3197 55.8986 9.18431 51.8083 7.89726 47.0123C6.61021 42.2163 7.27641 37.1057 9.74995 32.8V32.9ZM78.9041 48.9625L54.5999 34.85L62.9958 30C63.0418 29.9772 63.0924 29.9654 63.1437 29.9654C63.195 29.9654 63.2456 29.9772 63.2916 30L83.4166 41.6291C86.4955 43.4038 89.0058 46.018 90.6542 49.1663C92.3027 52.3146 93.0212 55.867 92.7258 59.4085C92.4304 62.9499 91.1334 66.3342 88.9862 69.1659C86.839 71.9976 83.9303 74.1599 80.5999 75.4V51.7416C80.5825 51.1711 80.417 50.615 80.1197 50.1277C79.8224 49.6405 79.4035 49.2389 78.9041 48.9625ZM87.2791 36.3666L86.6916 36.0125L66.7999 24.4208C66.3034 24.1317 65.7391 23.9794 65.1645 23.9794C64.59 23.9794 64.0256 24.1317 63.5291 24.4208L39.2041 38.4583V28.7375C39.2007 28.6887 39.2096 28.6399 39.23 28.5955C39.2504 28.5511 39.2816 28.5125 39.3208 28.4833L59.4458 16.8708C62.5306 15.0955 66.0569 14.2348 69.6127 14.3894C73.1686 14.544 76.6069 15.7075 79.526 17.7439C82.445 19.7802 84.7242 22.6053 86.0972 25.889C87.4701 29.1728 87.88 32.7794 87.2791 36.2875V36.3666ZM34.6125 53.5958L26.1958 48.7458C26.1535 48.7204 26.1173 48.6859 26.0899 48.6449C26.0625 48.6038 26.0446 48.5572 26.0374 48.5083V25.3125C26.0444 21.7546 27.0636 18.272 28.9759 15.2717C30.8882 12.2714 33.6146 9.87704 36.8369 8.36838C40.0591 6.85972 43.6441 6.29899 47.1731 6.7517C50.7021 7.2044 54.0295 8.65184 56.7666 10.925L56.175 11.2583L36.2666 22.75C35.7725 23.0419 35.3621 23.4566 35.0752 23.9537C34.7883 24.4508 34.6347 25.0136 34.6291 25.5875L34.6125 53.5958ZM39.1833 43.7416L50.0249 37.4916L60.8874 43.7416V56.2375L50.0666 62.4875L39.2041 56.2375L39.1833 43.7416Z" fill="#74AA9C"/>
</svg>
